<?xml version="1.0" encoding="utf-8"?>
<!-- Generator: Adobe Illustrator 22.1.0, SVG Export Plug-In . SVG Version: 6.00 Build 0)  -->
<svg version="1.1" id="Layer_1" xmlns="http://www.w3.org/2000/svg" xmlns:xlink="http://www.w3.org/1999/xlink" x="0px" y="0px"
	 viewBox="0 0 300 300" style="enable-background:new 0 0 300 300;" xml:space="preserve">
<style type="text/css">
	.st0{opacity:0.15;fill:#84DADE;}
	.st1{opacity:0.15;fill:#B0CE61;}
	.st2{fill:none;stroke:#000000;stroke-width:5;stroke-miterlimit:10;}
	.st3{fill:#F4C125;}
	.st4{fill:none;stroke:#000000;stroke-width:4;stroke-miterlimit:10;}
	.st5{fill:#86CEE2;}
	.st6{fill:#B0CE61;}
	.st7{fill:none;stroke:#000000;stroke-width:4;stroke-linecap:round;stroke-linejoin:round;stroke-miterlimit:10;}
	.st8{fill:none;stroke:#000000;stroke-width:4;stroke-miterlimit:10;stroke-dasharray:4;}
	.st9{opacity:0.15;}
	.st10{fill:#EF8875;}
	.st11{fill:#D78875;}
	.st12{fill:#0E0E0E;}
	.st13{fill:none;stroke:#000000;stroke-width:3.4302;stroke-linecap:round;stroke-linejoin:round;stroke-miterlimit:10;}
	.st14{fill:#B8CD66;}
	.st15{opacity:0.15;fill:#F4C125;}
	.st16{fill:none;stroke:#000000;stroke-width:3.4123;stroke-linecap:round;stroke-linejoin:round;stroke-miterlimit:10;}
	.st17{fill:#9CCDE2;}
	.st18{fill:#FFFFFF;}
	.st19{fill:#111112;}
</style>
<g class="st9">
	<path class="st10" d="M150,94.9c-77.1,0-139.7,62.5-139.7,139.7c0,19.3,3.9,37.7,11,54.4l256.8,1.4c7.4-17.1,11.6-35.9,11.6-55.8
		C289.7,157.4,227.1,94.9,150,94.9z"/>
</g>
<line class="st2" x1="14.1" y1="287.5" x2="285.9" y2="287.5"/>
<g>
	<g>
		<path class="st3" d="M96.2,125.6c0-22.3,24.6-14.8,24.6-47.2c0-20.2-16.4-36.5-36.5-36.5S47.7,58.2,47.7,78.4
			c0,32.4,24.6,24.8,24.6,47.2"/>
		<path class="st7" d="M91.2,120.6c0-22.3,24.6-14.8,24.6-47.2c0-20.2-16.4-36.5-36.5-36.5S42.7,53.2,42.7,73.4
			c0,32.4,24.6,24.8,24.6,47.2"/>
		<rect x="67.2" y="120.6" class="st7" width="24.2" height="12"/>
		<rect x="74.2" y="132.6" class="st7" width="10.2" height="10.2"/>
		<polyline class="st7" points="79.3,120.6 79.3,67.4 68.5,78.2 90.4,78.2 		"/>
	</g>
	<line class="st8" x1="79.2" y1="143.7" x2="79.2" y2="287.5"/>
	<line class="st8" x1="30" y1="72.5" x2="15.6" y2="72.5"/>
	<line class="st8" x1="125.9" y1="72.5" x2="140.3" y2="72.5"/>
	<line class="st8" x1="44.1" y1="38.6" x2="33.9" y2="28.4"/>
	<line class="st8" x1="111.8" y1="106.4" x2="122" y2="116.5"/>
	<line class="st8" x1="44.1" y1="106.4" x2="33.9" y2="116.5"/>
	<line class="st8" x1="111.8" y1="38.6" x2="122" y2="28.4"/>
	<line class="st8" x1="77.9" y1="24.6" x2="77.9" y2="10.2"/>
</g>
<g>
	<path class="st10" d="M225.1,223.8c3.7,5.4,4.1,10.7,1.5,16.1c-2.9,6-8,8.5-14.4,8.6c-1.7,0-3.6-0.5-3.7,2
		c-0.1,2.5,2.1,2.2,3.6,2.4c4.3,0.3,8.2-1.1,11.8-3.2c4.6,9.7-3.1,22.5-14.4,23.8c-8,0.9-14.1-2.3-18.3-9c-0.9-1.5-1.7-3.3-3.7-2.2
		c-2.3,1.2-1,3.1-0.1,4.6c6,9.6,14.8,12.7,25.8,10.7c-3.2,6.1-12.2,8.2-19.1,4.6c-0.7-0.4-1.4-0.9-2.1-1.3c-1.2-0.6-2.4-0.5-3.1,0.7
		c-0.7,1.2-0.3,2.3,0.8,3.1c1.2,0.8,2.4,1.5,3.8,2.4c-1.4,2.4-3.6,3-6.2,2.6c-2.6-0.4-4.2-2-4.9-4.5c-0.3-1.2-0.3-2.3-0.2-3.5
		c3.7-27.7,7.4-55.5,11.2-83.2c0.7-5.4,4.6-8.5,9.5-8c3.4,0.3,5.8,2,7.1,5.1c1.3,3.2,0.8,6.3-1.4,9c-0.5,0.6-1.3,1.1-1.7,1.8
		c-0.5,0.8-0.6,1.9,0.2,2.6c0.8,0.8,1.8,1,2.6,0.4c1.1-0.8,2.4-1.8,3-3c1.3-2.6,2.8-2.1,4.5-0.8c4,2.8,6.1,6.6,5.4,11.6
		c-0.7,4.9-3.4,8.2-8.1,9.8c-4.8,1.6-8.9,0.3-12.4-3.1c-0.4-0.4-0.8-0.9-1.1-1.4c-0.9-1.3-2.1-2.2-3.6-1.1c-1.6,1.2-0.9,2.7,0.1,4
		c5.6,8,17.8,9,24.7,2C223.1,226.2,224,225.1,225.1,223.8z"/>
	<path class="st11" d="M165.4,283.1c1.5-0.4,2.7-0.8,3.9-1.1c1.4-0.4,2.5-1.3,2-2.8c-0.5-1.7-1.8-1.9-3.4-1.4
		c-3.6,1.2-7.2,1.3-10.8-0.2c-4-1.7-6.9-4.4-8.8-8.9c3.6,1.4,6.8,2.8,10.3,3.1c7.2,0.6,13.3-1.8,18.4-6.8c1.1-1.1,2.3-2.5,0.8-4
		c-1.5-1.4-2.7-0.4-3.9,0.8c-5.4,5.2-11.6,7.2-18.9,4.7c-7.2-2.5-11.4-7.6-12.4-15.1c-0.6-4.3,0.2-8.5,2.9-12.4
		c3.3,3.1,6.8,5.9,11.5,6.5c1.4,0.2,3,0.6,3.5-1.4c0.5-2.1-0.9-2.5-2.6-2.9c-12-3.3-16.5-16.7-8.6-25.4c1.4-1.5,2.2-2.4,3.5,0.5
		c4.3,9.7,16.2,12.8,24.5,6.7c1.4-1.1,3.3-2.3,1.8-4.3c-1.4-1.8-2.9-0.5-4.3,0.5c-4.4,3.1-9.3,3.3-13.6,0.4
		c-4.4-2.9-6.2-7.1-5.2-12.3c0.9-4.9,4-7.8,8.8-9.3c1.9-0.5,2.9-0.4,3.3,1.7c0.2,1,0.8,2,1.4,2.9c0.8,1.3,1.9,2.4,3.5,1.5
		c1.6-0.9,1.3-2.3,0.4-3.7c-0.9-1.3-1.4-2.7-1.4-4.3c0-4.8,3.4-8.7,7.9-8.9c5.1-0.2,8.7,2.8,9.3,7.8c0.1,1,0,2.1-0.1,3.2
		c-3.7,27.4-7.3,54.8-11,82.1c-0.7,5.2-3.7,7.6-8.1,6.7C167.6,286.6,166.3,285.3,165.4,283.1z"/>
	<path class="st12" d="M226.2,244.3c-0.6-1.5-0.4-2.5,0.5-3.8c5.3-7.7,5-16.4-0.8-23.8c-1-1.3-1.5-2.5-1.4-4.2
		c0.3-7.4-3.2-13.2-9.9-16.2c-1.4-0.6-2-1.1-2.2-2.7c-1.3-10.8-12.1-15.6-20.9-9.3c-1.4,1-1.9,1.3-3.2-0.3
		c-6.7-8.5-18.6-6.7-22.6,3.3c-0.6,1.4-1.2,1.9-2.7,2.2c-7.4,1.2-12.2,5.4-13.9,12.9c-0.4,1.6-0.9,2.7-2.3,3.7
		c-7.7,5.7-10.1,13.7-7,23c0.4,1.2,0.4,2.1-0.3,3.2c-5.6,8.5-5.5,17.1-0.1,25.7c0.8,1.3,1,2.6,1.2,4c1.1,8.2,7.1,14.8,15,16.5
		c1.7,0.3,2.5,1,3.2,2.6c2.8,6.6,9.5,8.7,15.6,5c1.5-0.9,2.1-1,3.4,0.4c4.8,5.2,12,4.9,16.4-0.6c1.1-1.3,2-2,3.8-1.8
		c4.7,0.5,8.9-1.1,12.7-3.8c2.5-1.8,14.4-18.5,15.3-21.4c0.5-1.5,0.8-3,1.2-4.3C227.4,251.1,227.4,247.6,226.2,244.3z M167.4,283.2
		c-2.2-0.5-3.5-1.8-4.4-4c1.5-0.4,2.7-0.8,3.9-1.1c1.4-0.4,2.5-1.3,2-2.8c-0.5-1.7-1.8-1.9-3.4-1.4c-3.6,1.2-7.2,1.3-10.8-0.2
		c-4-1.7-6.9-4.4-8.8-8.9c3.6,1.4,6.8,2.8,10.3,3.1c7.2,0.6,13.3-1.8,18.4-6.8c1.1-1.1,2.3-2.5,0.8-4c-1.5-1.4-2.7-0.4-3.9,0.8
		c-5.4,5.2-11.6,7.2-18.9,4.7c-7.2-2.5-11.4-7.6-12.4-15.1c-0.6-4.3,0.2-8.5,2.9-12.4c3.3,3.1,6.8,5.9,11.5,6.5
		c1.4,0.2,3,0.6,3.5-1.4c0.5-2.1-0.9-2.5-2.6-2.9c-12-3.3-16.5-16.7-8.6-25.4c1.4-1.5,2.2-2.4,3.5,0.5c4.3,9.7,16.2,12.8,24.5,6.7
		c1.4-1.1,3.3-2.3,1.8-4.3c-1.4-1.8-2.9-0.5-4.3,0.5c-4.4,3.1-9.3,3.3-13.6,0.4c-4.4-2.9-6.2-7.1-5.2-12.3c0.9-4.9,4-7.8,8.8-9.3
		c1.9-0.5,2.9-0.4,3.3,1.7c0.2,1,0.8,2,1.4,2.9c0.8,1.3,1.9,2.4,3.5,1.5c1.6-0.9,1.3-2.3,0.4-3.7c-0.9-1.3-1.4-2.7-1.4-4.3
		c0-4.8,3.4-8.7,7.9-8.9c5.1-0.2,8.7,2.8,9.3,7.8c0.1,1,0,2.1-0.1,3.2c-3.7,27.4-7.3,54.8-11,82.1
		C174.7,281.6,171.7,284.1,167.4,283.2z M207,269.5c-8,0.9-14.1-2.3-18.3-9c-0.9-1.5-1.7-3.3-3.7-2.2c-2.3,1.2-1,3.1-0.1,4.6
		c6,9.6,14.8,12.7,25.8,10.7c-3.2,6.1-12.2,8.2-19.1,4.6c-0.7-0.4-1.4-0.9-2.1-1.3c-1.2-0.6-2.4-0.5-3.1,0.7
		c-0.7,1.2-0.3,2.3,0.8,3.1c1.2,0.8,2.4,1.5,3.8,2.4c-1.4,2.4-3.6,3-6.2,2.6c-2.6-0.4-4.2-2-4.9-4.5c-0.3-1.2-0.3-2.3-0.2-3.5
		c3.7-27.7,7.4-55.5,11.2-83.2c0.7-5.4,4.6-8.5,9.5-8c3.4,0.3,5.8,2,7.1,5.1c1.3,3.2,0.8,6.3-1.4,9c-0.5,0.6-1.3,1.1-1.7,1.8
		c-0.5,0.8-0.6,1.9,0.2,2.6c0.8,0.8,1.8,1,2.6,0.4c1.1-0.8,2.4-1.8,3-3c1.3-2.6,2.8-2.1,4.5-0.8c4,2.8,6.1,6.6,5.4,11.6
		c-0.7,4.9-3.4,8.2-8.1,9.8c-4.8,1.6-8.9,0.3-12.4-3.1c-0.4-0.4-0.8-0.9-1.1-1.4c-0.9-1.3-2.1-2.2-3.6-1.1c-1.6,1.2-0.9,2.7,0.1,4
		c5.6,8,17.8,9,24.7,2c1-1,1.8-2.1,3-3.4c3.7,5.4,4.1,10.7,1.5,16.1c-2.9,6-8,8.5-14.4,8.6c-1.7,0-3.6-0.5-3.7,2
		c-0.1,2.5,2.1,2.2,3.6,2.4c4.3,0.3,8.2-1.1,11.8-3.2C226.1,255.4,218.4,268.2,207,269.5z"/>
</g>
<path class="st8" d="M222.3,190.2c9.7,2,12.8,16.7,11.2,21.2c0,0,11.5,14.2,1.5,30.8"/>
<g>
	
		<rect x="180.6" y="62.2" transform="matrix(0.9766 -0.2151 0.2151 0.9766 -17.8872 50.8906)" class="st5" width="88.5" height="90.9"/>
	<polyline class="st7" points="163.1,57.3 185.3,157.9 271.7,138.8 252.2,50.1 177.5,66.5 	"/>
	<path class="st7" d="M177.5,66.5c-6.5,1.4-13-2.7-14.4-9.2s2.7-13,9.2-14.4L247,26.4c-6.5,1.4-10.7,7.9-9.2,14.4s7.9,10.7,14.4,9.2
		"/>
	<g>
		<g id="iWwDKj_2_">
			<g>
				<path class="st18" d="M251.3,98.1c1.9,8,3.9,15.9,5.8,23.9c0.8,3.4-0.2,4.9-3.6,5.8c-5.9,1.4-11.8,2.9-17.7,4.3
					c-3,0.7-4.7-0.3-5.4-3.2c-3.9-16.2-7.9-32.4-11.8-48.5c-0.7-2.9,0.3-4.6,3.2-5.3c6.1-1.5,12.2-3,18.3-4.5
					c2.8-0.7,4.6,0.4,5.3,3.3C247.4,81.9,249.4,90,251.3,98.1z M236.6,95.7c-2.7,0.7-5.3,1.4-8,1.9c-1.6,0.3-1.1,1.3-0.9,2.2
					c0.2,1,0.4,1.7,1.8,1.4c5.3-1.4,10.7-2.7,16.1-3.9c1.5-0.4,1.1-1.3,0.9-2.2c-0.2-1-0.4-1.8-1.8-1.4
					C241.9,94.5,239.2,95.1,236.6,95.7z M239.3,106.9c2.7-0.7,5.3-1.4,8-1.9c1.6-0.3,1.1-1.3,0.9-2.2c-0.2-1-0.4-1.7-1.8-1.4
					c-5.3,1.4-10.7,2.7-16.1,3.9c-1.5,0.4-1.1,1.3-0.9,2.2c0.2,1,0.4,1.8,1.8,1.4C233.9,108.1,236.6,107.5,239.3,106.9z"/>
				<path class="st18" d="M207,106.9c-3.1,0.7-6.1,1.5-9.2,2.2c-2.6,0.6-4.4-0.5-5-3c-1.5-6.3-3.1-12.5-4.6-18.8
					c-0.6-2.5,0.5-4.3,3.1-5c6.2-1.5,12.4-3,18.6-4.5c2.6-0.6,4.4,0.5,5.1,3.2c1.5,6.2,3,12.3,4.5,18.5c0.7,2.7-0.4,4.5-3.2,5.2
					C213.2,105.4,210.1,106.2,207,106.9z M204.3,95.3c2.7-0.7,5.3-1.4,8-1.9c1.4-0.3,1.2-1.1,0.9-2.1c-0.3-0.9-0.3-1.9-1.8-1.6
					c-5.3,1.4-10.7,2.7-16.1,3.9c-1.4,0.3-1.2,1.1-0.9,2.1c0.3,0.9,0.3,2,1.8,1.6C198.9,96.5,201.6,95.9,204.3,95.3z"/>
				<path class="st18" d="M197.8,127.1c-0.7-3.1-1.5-6.1-2.2-9.2c-0.7-2.8,0.4-4.6,3.1-5.2c6.2-1.5,12.3-3,18.5-4.5
					c2.7-0.7,4.5,0.4,5.2,3.2c1.5,6.1,3,12.2,4.5,18.3c0.7,2.8-0.4,4.6-3.3,5.3c-6.1,1.5-12.1,3-18.2,4.4c-2.9,0.7-4.6-0.3-5.4-3.3
					C199.3,133.1,198.6,130.1,197.8,127.1z M220.6,121.5c-0.1-1.5-0.8-1.7-2.1-1.3c-1.4,0.4-2.9,0.7-4.3,1.1
					c-1.2,0.4-1.8,0.1-2.1-1.2c-0.3-1.6-0.8-3.2-1.1-4.7c-0.3-1.5-1.2-1-2.1-0.8c-0.9,0.2-1.9,0.3-1.5,1.7c0.4,1.5,0.7,3.1,1.1,4.6
					c0.4,1.3,0.1,1.9-1.3,2.2c-1.6,0.3-3.2,0.8-4.7,1.1c-1.5,0.3-0.9,1.3-0.7,2.2c0.2,0.9,0.3,1.8,1.6,1.4c1.6-0.4,3.2-0.7,4.7-1.2
					c1.2-0.3,1.8-0.1,2.1,1.2c0.3,1.6,0.8,3.2,1.1,4.7c0.3,1.5,1.2,1,2.1,0.8c0.9-0.2,1.9-0.3,1.5-1.7c-0.5-1.6-0.7-3.2-1.2-4.7
					c-0.3-1.1-0.1-1.7,1.1-2c1.4-0.3,2.8-0.8,4.3-1C220.8,123.6,221.2,122.9,220.6,121.5z"/>
			</g>
		</g>
	</g>
	<line class="st7" x1="189.8" y1="47" x2="236.6" y2="37"/>
	<line class="st7" x1="166.3" y1="62" x2="183" y2="58.4"/>
	<line class="st7" x1="244.9" y1="26.9" x2="250.2" y2="50.5"/>
</g>
<line class="st8" x1="185.6" y1="125.5" x2="190.8" y2="146.4"/>
<path class="st8" d="M151.7,46.6c0,0,0.8-8.9,8.2-11.3s15.8-4.4,15.8-4.4"/>
</svg>
