<?xml version="1.0" encoding="UTF-8"?>
<svg viewBox="0 0 495 523" version="1.1" xmlns="http://www.w3.org/2000/svg" xmlns:xlink="http://www.w3.org/1999/xlink">
    <title>5ED412BF-8568-401F-8F32-531687ED99C3</title>
    <defs>
        <path d="M486,242.999561 C486,377.204799 377.205677,486 242.999561,486 C108.795201,486 0,377.204799 0,242.999561 C0,108.794323 108.795201,0 242.999561,0 C377.205677,0 486,108.794323 486,242.999561" id="path-1"></path>
    </defs>
    <g id="screens" stroke="none" stroke-width="1" fill="none" fill-rule="evenodd">
        <g id="15-1-1-contact" transform="translate(-829.000000, -139.000000)">
            <g id="Group-79" transform="translate(829.000000, 140.000000)">
                <g id="Fill-786-+-Fill-788-+-Fill-792-Mask" transform="translate(5.000000, 36.000000)">
                    <mask id="mask-2" fill="white">
                        <use xlink:href="#path-1"></use>
                    </mask>
                    <use id="Mask" fill="#FFE4D2" xlink:href="#path-1"></use>
                    <path d="M348.40728,370.67431 C317.431347,351.341153 300.359964,331.375332 285.909742,314.473537 C280.821191,308.521223 276.296764,303.233207 271.407678,298.325667 C269.642369,298.398599 267.870031,298.442534 266.08627,298.442534 L223.842768,298.442534 C223.398146,298.442534 222.957917,298.460987 222.515052,298.47241 C221.687317,298.453079 220.856945,298.442534 220.024816,298.442534 L220.023938,298.442534 C183.728355,298.442534 151.008204,283.150518 127.94145,258.662028 C103.177048,257.858017 73.0701497,253.275597 33.5207414,235.950269 C29.5753784,234.221866 25.7925749,232.475889 22.1512421,230.716732 C36.937127,280.578563 70.0526939,322.560213 113.694208,348.848281 C119.62104,352.418439 124.983746,356.644986 129.721696,361.393481 C144.658717,364.83447 161.280207,370.182238 180.02112,378.392811 C236.844892,403.284625 261.121615,431.682451 280.626998,454.499654 C288.788364,464.047608 295.498995,471.889127 304.597934,479.181459 C316.755627,476.011988 328.544266,471.926033 339.88389,466.999162 L333.730354,434.689363 C329.361457,411.74387 335.087067,388.697326 348.40728,370.67431" id="Fill-786" fill="#0633EF" mask="url(#mask-2)"></path>
                    <path d="M280.626822,454.500094 C261.12144,431.682012 236.844716,403.285064 180.020944,378.39325 C161.279152,370.182678 144.65942,364.834909 129.72152,361.39392 C131.919149,363.595942 133.981458,365.912196 135.903175,368.325985 C150.501897,386.669726 156.941889,410.734683 152.380557,434.688923 L146.227021,466.999601 C175.898963,479.89013 208.641961,487.038355 243.055368,487.038355 C262.550206,487.038355 281.50728,484.740554 299.675281,480.408563 C301.322843,480.016663 302.963376,479.608067 304.597758,479.181898 C295.49882,471.888688 288.788188,464.047169 280.626822,454.500094" id="Fill-788" fill="#3B7CFF" mask="url(#mask-2)"></path>
                    <path d="M435.063883,279.752058 C403.641571,265.988101 393.393293,253.999997 377.879844,235.853085 C377.36229,235.24766 376.840342,234.636085 376.31488,234.023631 C374.370317,237.469893 372.269345,240.815104 370.020752,244.051356 C349.535619,273.526468 316.837434,293.869252 279.251042,297.756621 C276.658877,298.025503 274.043865,298.21706 271.407765,298.326019 C276.295974,303.233558 280.821279,308.520696 285.90983,314.473888 C300.360052,331.375683 317.431435,351.341504 348.407368,370.674662 C349.081331,369.762571 349.774625,368.863661 350.488129,367.977931 C356.501073,360.505467 363.873366,353.9943 372.416967,348.848632 C398.909772,332.889683 421.523116,311.145373 438.513659,285.36783 C439.225406,284.28615 439.926609,283.197441 440.619024,282.10258 C438.821204,281.369745 436.972419,280.58858 435.063883,279.752058" id="Fill-792" fill="#3B7CFF" mask="url(#mask-2)"></path>
                </g>
                <path d="M306.47108,238.167242 C306.47108,249.005127 297.685837,257.79037 286.847952,257.79037 C276.010066,257.79037 267.224823,249.005127 267.224823,238.167242 C267.224823,227.330234 276.010066,218.544113 286.847952,218.544113 C297.685837,218.544113 306.47108,227.330234 306.47108,238.167242" id="Fill-756" fill="#FF6700"></path>
                <path d="M252.656241,234.974309 C252.656241,251.420937 239.323726,264.754331 222.877098,264.754331 C206.43047,264.754331 193.097955,251.420937 193.097955,234.974309 C193.097955,218.527681 206.43047,205.195166 222.877098,205.195166 C239.323726,205.195166 252.656241,218.527681 252.656241,234.974309" id="Fill-758" fill="#FF6700"></path>
                <path d="M293.530377,216.283921 C293.530377,236.416695 277.209403,252.737669 257.076629,252.737669 C236.943855,252.737669 220.622881,236.416695 220.622881,216.283921 C220.622881,196.151147 236.943855,179.830173 257.076629,179.830173 C277.209403,179.830173 293.530377,196.151147 293.530377,216.283921" id="Fill-760" fill="#FF6700"></path>
                <path d="M251.136529,252.752519 C264.05957,252.752519 275.85436,247.934607 284.831159,239.999067 C283.173052,237.317275 281.204764,234.769924 278.90257,232.425552 C262.219572,215.436766 234.923635,215.188973 217.93485,231.871092 C216.443696,233.335885 215.08874,234.886791 213.855046,236.501841 C223.149055,246.497054 236.411275,252.752519 251.136529,252.752519" id="Fill-762" fill="#FF6700"></path>
                <path d="M298.849763,260.072178 C298.849763,255.560932 295.192614,251.903783 290.681368,251.903783 C290.41688,251.903783 290.155906,251.918721 289.897568,251.943324 C288.836977,247.787073 287.15163,243.754719 284.830984,239.999155 C275.855063,247.934695 264.059394,252.752607 251.136353,252.752607 C236.411099,252.752607 223.14888,246.497142 213.85487,236.501929 C210.271531,241.19243 207.779538,246.453207 206.379769,251.938931 C206.150428,251.919599 205.920209,251.903783 205.686475,251.903783 C201.175229,251.903783 197.518079,255.560932 197.518079,260.072178 C197.518079,263.569404 199.718344,266.548197 202.809611,267.710717 C204.362274,268.294174 205.566971,269.563895 205.894727,271.190369 C207.511535,279.229595 211.433173,286.900646 217.683366,293.14381 C234.520136,309.956856 261.371451,310.064936 278.348814,293.392482 C284.727297,287.12823 288.736805,279.36843 290.380853,271.221124 C290.712123,269.582348 291.933516,268.309991 293.501995,267.733563 C296.623138,266.585981 298.849763,263.591372 298.849763,260.072178" id="Fill-764" fill="#FFB280"></path>
                <path d="M253.19383,287.027794 C252.891557,287.317765 252.554136,287.558529 252.218473,287.783476 C251.873143,288.016332 251.520785,288.232492 251.148216,288.396809 C250.769496,288.564641 250.375839,288.695567 249.978666,288.793981 C249.577979,288.892396 249.166747,288.922272 248.757273,288.949511 C248.346042,288.976751 247.938325,288.966207 247.528851,288.922272 C247.120255,288.878337 246.715174,288.817706 246.318881,288.703475 C245.926102,288.590123 245.529808,288.467984 245.158118,288.285214 C244.792579,288.105959 244.463945,287.852015 244.128282,287.606858 C243.801405,287.367851 243.49386,287.099848 243.203889,286.797575" id="Stroke-766" stroke="#0C266D" stroke-width="1.6537134" stroke-linecap="round" stroke-linejoin="round"></path>
                <path d="M232.62935,263.344984 C233.599435,264.353732 233.566923,265.959117 232.557296,266.928323 C231.548549,267.898407 229.943164,267.866774 228.973958,266.856269 C228.003873,265.847522 228.035506,264.242137 229.045132,263.272931 C230.054759,262.302846 231.659265,262.335358 232.62935,263.344984" id="Fill-768" fill="#0C266D"></path>
                <path d="M267.393797,263.344984 C268.363882,264.353732 268.33137,265.959117 267.321744,266.928323 C266.312996,267.898407 264.707611,267.866774 263.737527,266.856269 C262.76832,265.847522 262.799954,264.242137 263.80958,263.272931 C264.819206,262.302846 266.423712,262.335358 267.393797,263.344984" id="Fill-770" fill="#0C266D"></path>
                <path d="M200.503199,273.741762 C201.011088,299.71262 222.475971,320.354161 248.446828,319.846273 L250.762203,319.846273" id="Stroke-772" stroke="#0C266D" stroke-linecap="round" stroke-linejoin="round"></path>
                <path d="M201.666421,273.828547 L200.414274,273.828547 C193.557777,273.828547 188,268.27077 188,261.414274 C188,254.557777 193.557777,249 200.414274,249 L201.666421,249 C204.440477,249 206.68907,251.249472 206.68907,254.022649 L206.68907,268.805898 C206.68907,271.579954 204.440477,273.828547 201.666421,273.828547" id="Fill-774" fill="#0C266D"></path>
                <path d="M294.022649,249 L295.274797,249 C302.131293,249 307.68907,254.557777 307.68907,261.414274 C307.68907,268.27077 302.131293,273.828547 295.274797,273.828547 L294.022649,273.828547 C291.248593,273.828547 289,271.579954 289,268.805898 L289,254.022649 C289,251.249472 291.248593,249 294.022649,249" id="Fill-776" fill="#0C266D"></path>
                <path d="M251.737209,322.459878 L246.949172,322.459878 C245.51074,322.459878 244.343827,321.293843 244.343827,319.855411 C244.343827,318.416101 245.51074,317.250066 246.949172,317.250066 L251.737209,317.250066 C253.17564,317.250066 254.341675,318.416101 254.341675,319.855411 C254.341675,321.293843 253.17564,322.459878 251.737209,322.459878" id="Fill-778" fill="#0C266D"></path>
                <path d="M493.242016,143.974731 C491.477587,141.553034 488.681563,140.334277 485.896963,140.470476 C485.927717,140.331641 485.956715,140.193685 485.980439,140.053093 C486.548958,136.625285 485.089438,133.232624 481.801342,131.527946 C479.359435,130.261739 476.643373,130.298645 474.237493,131.343419 C473.519595,129.242447 471.992414,127.419145 469.829055,126.384915 C465.541877,124.335786 460.397089,126.310225 458.331265,130.589494 L447.083027,153.887346 C440.794171,166.914074 425.238545,172.624745 412.085284,166.604771 C411.968417,166.55117 411.85155,166.49757 411.734683,166.442212 L400.86077,160.155992 C396.632466,157.700904 391.178375,159.250931 388.898149,163.640916 C386.762029,167.753232 388.421893,172.834754 392.429644,175.161552 L405.549514,182.752641 C410.888495,185.852695 414.255673,191.481647 414.462168,197.651878 L414.810133,208.056565 L457.352393,208.056565 C457.352393,208.056565 457.26013,198.958505 457.26013,197.678239 C457.26013,196.938374 457.288248,196.195872 457.340092,195.450735 C458.041294,185.464309 463.340734,176.364492 471.430925,170.467536 L491.36687,155.935596 C495.187458,153.150995 496.027495,147.796198 493.242016,143.974731" id="Fill-780" fill="#FFB280"></path>
                <path d="M1.64363553,143.974731 C3.40806513,141.553034 6.20408853,140.334277 8.98868883,140.470476 C8.95793433,140.331641 8.92805853,140.193685 8.90521233,140.053093 C8.33669343,136.625285 9.79621413,133.232624 13.0843095,131.527946 C15.5262168,130.261739 18.2422785,130.298645 20.6472804,131.343419 C21.3651783,129.242447 22.8932376,127.419145 25.056597,126.384915 C29.3428956,124.335786 34.4885628,126.310225 36.5543865,130.589494 L47.8026252,153.887346 C54.0914811,166.914074 69.6471072,172.624745 82.7994888,166.604771 C82.9163559,166.55117 83.033223,166.49757 83.1509688,166.442212 L94.0240026,160.155992 C98.2531857,157.700904 103.706398,159.250931 105.987503,163.640916 C108.122744,167.753232 106.463759,172.834754 102.456008,175.161552 L89.3361381,182.752641 C83.9971569,185.852695 80.6299785,191.481647 80.423484,197.651878 L80.0746401,208.056565 L37.5332583,208.056565 C37.5332583,208.056565 37.5974034,196.195872 37.5446814,195.450735 C36.8443575,185.464309 31.5449178,176.364492 23.4547269,170.467536 L3.51878133,155.935596 C-0.301806275,153.150995 -1.14184347,147.796198 1.64363553,143.974731" id="Fill-782" fill="#FFB280"></path>
                <path d="M440.063883,315.752058 C441.972419,316.58858 443.821204,317.369745 445.619024,318.102581 C463.388096,290.007905 474.56516,257.329931 476.96489,222.237289 C477.063304,220.785677 477.147659,218.875383 477.217076,216.925548 C477.39018,212.021523 473.45624,207.954021 468.548701,207.954021 L406.221631,207.627144 C401.620758,207.627144 397.813351,211.21927 397.562921,215.813992 C397.444297,218.002834 396.968042,220.532611 396.787029,222.149419 C394.861798,239.393907 389.462186,255.58659 381.31488,270.023631 C381.840342,270.636085 382.36229,271.24766 382.879844,271.853085 C398.393293,289.999997 408.641571,301.988101 440.063883,315.752058" id="Fill-784" fill="#0633EF"></path>
                <path d="M123.205015,283.011872 C110.349634,265.602189 101.850847,244.777877 99.3237059,222.148716 C99.1435724,220.532787 98.6664383,218.00301 98.5478138,215.813289 C98.298263,211.219446 94.4890985,207.62732 89.8882253,207.62732 L27.5620343,207.954196 C22.6544948,207.954196 18.7205549,212.021699 18.8945375,216.925723 C18.9630761,218.875559 19.0474313,220.785853 19.1467244,222.237465 C20.1651377,237.130551 22.7669684,251.587802 26.7791126,265.447537 C26.9021306,265.871071 27.0260273,266.294604 27.1516814,266.71638 C30.7921355,268.475538 34.574939,270.221515 38.520302,271.949917 C78.070589,289.275245 108.176608,293.858545 132.941011,294.662555 C129.471024,290.979045 126.217198,287.090797 123.205015,283.011872" id="Fill-790" fill="#3B7CFF"></path>
                <path d="M338.915144,41.8216386 C316.179661,64.5571224 316.179661,101.418587 338.915144,124.153193 C361.650628,146.888676 398.512093,146.888676 421.247577,124.153193 C443.983061,101.418587 443.983061,64.5571224 421.247577,41.8216386 C398.512093,19.0861548 361.650628,19.0861548 338.915144,41.8216386" id="Fill-794" fill="#CCDEFF"></path>
                <path d="M380.081449,46.4442157 C400.67554,46.4442157 417.371719,63.1395157 417.371719,83.7344863 C417.371719,104.328578 400.67554,121.023878 380.081449,121.023878 C359.487357,121.023878 342.791178,104.328578 342.791178,83.7344863" id="Stroke-796" stroke="#0C266D" stroke-linecap="round" stroke-linejoin="round"></path>
                <polyline id="Stroke-798" stroke="#0C266D" stroke-linecap="round" stroke-linejoin="round" points="386.401089 49.9873099 379.135998 46.5638947 386.848348 43.540288"></polyline>
                <path d="M307.282384,58.2173898 C307.282384,90.3707802 281.217506,116.43478 249.064994,116.43478 C216.911604,116.43478 190.846725,90.3707802 190.846725,58.2173898 C190.846725,26.0648781 216.911604,7.99172994e-13 249.064994,7.99172994e-13 C281.217506,7.99172994e-13 307.282384,26.0648781 307.282384,58.2173898 Z" id="Stroke-800" stroke="#0C266D" stroke-linecap="round" stroke-linejoin="round"></path>
                <path d="M158.93612,41.8216386 C181.671604,64.5571224 181.671604,101.418587 158.93612,124.153193 C136.200636,146.888676 99.3391711,146.888676 76.604566,124.153193 C53.8690822,101.418587 53.8690822,64.5571224 76.604566,41.8216386 C99.3391711,19.0861548 136.200636,19.0861548 158.93612,41.8216386" id="Fill-802" fill="#FF6700"></path>
                <polyline id="Stroke-804" stroke="#0C266D" stroke-linecap="round" stroke-linejoin="round" points="227.885336 59.7147825 243.831105 76.0691469 315.793999 14.1216756"></polyline>
                <path d="M95.0544541,82.9875035 C95.0544541,86.7623987 91.9948207,89.8220321 88.2199255,89.8220321 C84.4450303,89.8220321 81.3845182,86.7623987 81.3845182,82.9875035 C81.3845182,79.2126083 84.4450303,76.1529749 88.2199255,76.1529749 C91.9948207,76.1529749 95.0544541,79.2126083 95.0544541,82.9875035" id="Fill-806" fill="#FFFFFF"></path>
                <path d="M125.112584,82.9875035 C125.112584,86.7623987 122.052951,89.8220321 118.278056,89.8220321 C114.503161,89.8220321 111.442648,86.7623987 111.442648,82.9875035 C111.442648,79.2126083 114.503161,76.1529749 118.278056,76.1529749 C122.052951,76.1529749 125.112584,79.2126083 125.112584,82.9875035" id="Fill-808" fill="#FFFFFF"></path>
                <path d="M155.170715,82.9875035 C155.170715,86.7623987 152.111081,89.8220321 148.336186,89.8220321 C144.561291,89.8220321 141.500779,86.7623987 141.500779,82.9875035 C141.500779,79.2126083 144.561291,76.1529749 148.336186,76.1529749 C152.111081,76.1529749 155.170715,79.2126083 155.170715,82.9875035" id="Fill-810" fill="#FFFFFF"></path>
            </g>
        </g>
    </g>
</svg>