<svg enable-background="new 0 0 45 45" viewBox="0 0 45 45" xmlns="http://www.w3.org/2000/svg" xmlns:xlink="http://www.w3.org/1999/xlink"><clipPath id="a"><path d="m0 36h36v-36h-36z"/></clipPath><g clip-path="url(#a)" transform="matrix(1.25 0 0 -1.25 0 45)"><path d="m0 0v-3s0-3 3-3 3 3 3 3v3z" fill="#dd2e44" transform="translate(15 6)"/><path d="m0 0c.041 3-14 2-14-8 0-4 0-14 3-14 4 0 10.945 18 11 22" fill="#272b2b" transform="translate(14 34)"/><path d="m0 0c-.041 3 14 2 14-8 0-4 0-14-3-14-4 0-10.945 18-11 22" fill="#272b2b" transform="translate(22 34)"/><path d="m0 0c0-7-4-7-4-7h-18s-4 0-4 7c0 0 1 22 13 22s13-22 13-22" fill="#ccd6dd" transform="translate(31 14)"/><path d="m0 0v.025h-10v-.025c-2.803-.253-5-2.606-5-5.475 0-3.037 2.462-5.5 5.5-5.5 1.862 0 3.505.928 4.5 2.344.995-1.416 2.638-2.344 4.5-2.344 3.038 0 5.5 2.463 5.5 5.5 0 2.869-2.196 5.222-5 5.475" fill="#8899a6" transform="translate(23 13.975)"/><g fill="#272b2b"><path d="m0 0s0 2 2 2 2-2 2-2v-2s0-2-2-2-2 2-2 2z" transform="translate(11 20)"/><path d="m0 0s0 2 2 2 2-2 2-2v-2s0-2-2-2-2 2-2 2z" transform="translate(21 20)"/><path d="m0 0c-1-1 2-4 3-4s4 3 3 4-5 1-6 0" transform="translate(15 12)"/></g></g></svg>